<svg width="15" height="11" viewBox="0 0 15 11" fill="none" xmlns="http://www.w3.org/2000/svg">
<path d="M7.50293 0.247559C7.54854 0.247566 12.1704 0.249824 13.3301 0.563965C13.9717 0.734996 14.4764 1.24231 14.6475 1.88916C14.9561 3.05322 14.9561 5.47398 14.9561 5.50146C14.9561 5.50146 14.9559 7.94301 14.6455 9.11377C14.4745 9.75832 13.9691 10.2663 13.3271 10.4399C12.1661 10.7524 7.51595 10.7524 7.5 10.7524C7.5 10.7524 2.83603 10.753 1.67285 10.4399C1.03093 10.2689 0.525496 9.76095 0.354492 9.11377C0.044078 7.94302 0.0439453 5.50146 0.0439453 5.50146C0.0439554 5.474 0.0461868 3.05397 0.357422 1.88721C0.528426 1.24265 1.03386 0.73467 1.67578 0.561035C2.83934 0.248084 7.50293 0.247559 7.50293 0.247559ZM5.97656 7.71924L9.87598 5.50146L5.97656 3.28369V7.71924Z" fill="#4D5D80"/>
</svg>
