<?xml version="1.0" encoding="UTF-8"?>
<svg id="_레이어_1" xmlns="http://www.w3.org/2000/svg" version="1.1" viewBox="0 0 150 150">
  <!-- Generator: Adobe Illustrator 30.0.0, SVG Export Plug-In . SVG Version: 2.1.1 Build 123)  -->
  <defs>
    <style>
      .st0 {
        fill: #7ba4dd;
      }

      .st1 {
        fill: #0f1f3c;
      }
    </style>
  </defs>
  <path class="st1" d="M101.3,86c6.8-6.8,10.78-15.8,11.22-25.39l1.1-.77-1.05-1.51c-.09-7.51-2.32-14.75-6.48-20.94l-2.45-3.65-3.61,6.47c-.2.35-.39.7-.59,1.05-2.06-1.81-4.31-3.4-6.7-4.72l-.58-.32.1-.77,4.56-5.51-3.37-1.4c-.17-.07-.42-.15-.77-.26v-4.46s4.63-5.44,4.63-5.44l-3.43-1.42c-1.73-.72-3.53-1.35-5.36-1.87v-.63c0-7.97-6.48-14.45-14.46-14.45h-.08s-.08,0-.08,0c-7.97,0-14.45,6.48-14.45,14.45v.63c-1.83.53-3.63,1.16-5.36,1.87l-3.43,1.42,4.64,5.44v4.46c-.36.11-.61.19-.78.26l-3.37,1.4,4.56,5.51.1.77-.58.32c-2.38,1.32-4.63,2.91-6.7,4.72-.2-.35-.4-.7-.59-1.05l-3.61-6.47-2.45,3.65c-4.15,6.19-6.39,13.42-6.48,20.94l-1.05,1.51,1.1.77c.45,9.59,4.43,18.59,11.22,25.39.53.53,1.12,1.08,1.73,1.63l.12.11c-.56,1.38-1.19,2.65-1.88,3.79l-1.4,2.3,7.42,4.53,1.41-2.3c.62-1.02,1.21-2.12,1.75-3.27,2.57,1.37,5.29,2.44,8.11,3.19l1.09,8.06h17.92l1.09-8.06c2.82-.75,5.54-1.82,8.11-3.19.54,1.15,1.12,2.25,1.75,3.27l1.41,2.3,7.42-4.53-1.4-2.3c-.69-1.14-1.33-2.41-1.88-3.79l.12-.11c.61-.54,1.2-1.09,1.73-1.63ZM96.88,72.16c.06-1.74.26-3.49.59-5.21l.2-.04c.41-.08,2.8-.72,5.56-1.68-.98,4.97-3.04,9.29-6.14,12.85-.22-1.97-.29-3.95-.22-5.91ZM100.76,57.04c.59-1.27,1.28-2.62,2.11-4.16l.3-.54c.25,1.13.43,2.27.55,3.41-.89.43-1.9.86-2.96,1.28ZM89.32,84.37c-1.27.76-2.6,1.43-3.97,1.99l2.28-16.82c.24-.04.47-.09.71-.14-.08.82-.13,1.63-.16,2.44-.16,4.19.24,8.52,1.14,12.53ZM88.87,60.42l2-14.71c1.52,1.06,2.94,2.21,4.16,3.39-1.43,2.67-3.4,6.59-4.8,11.02-.45.1-.9.21-1.36.3ZM76.43,88.48c-1.65.13-3.22.14-4.87,0l-.29-2.75,1.37-14.99c.4.01.84.02,1.36.02s.95,0,1.35-.02l1.37,14.99-.29,2.75ZM74,62.1h0c-.22,0-.45,0-.72,0l.74-8.6.74,8.6c-.26,0-.5,0-.74,0ZM57.13,45.72l2,14.71c-.46-.1-.91-.2-1.36-.3-1.4-4.43-3.37-8.35-4.8-11.02,1.22-1.17,2.64-2.33,4.16-3.39ZM59.81,71.84c-.03-.81-.08-1.62-.16-2.44.24.05.47.09.71.14l2.28,16.82c-1.37-.56-2.7-1.23-3.97-1.99.9-4.01,1.29-8.34,1.14-12.53ZM44.28,55.76c.12-1.15.3-2.29.55-3.41l.3.54c.84,1.54,1.52,2.89,2.11,4.16-.89-.35-1.93-.79-2.96-1.28ZM50.33,66.9l.2.04c.33,1.72.52,3.47.59,5.21.07,1.96,0,3.95-.22,5.91-3.1-3.57-5.16-7.88-6.14-12.85,2.76.96,5.16,1.6,5.56,1.68Z"/>
  <path class="st0" d="M100.38,85.08c6.74-6.74,10.59-15.65,10.87-25.16l.57-.4-.54-.78c0-7.4-2.17-14.53-6.26-20.62l-1.27-1.89-2.58,4.63c-.46.83-.93,1.66-1.4,2.48-2.31-2.21-4.88-4.1-7.65-5.64l-1.36-.76.27-2.02,3.68-4.44-1.75-.72c-.25-.1-.81-.27-1.57-.48v-5.92s3.78-4.45,3.78-4.45l-1.78-.74c-2-.83-4.06-1.53-6.16-2.09v-.07s0-1.07,0-1.54c0-7.26-5.89-13.15-13.15-13.15-.03,0-.05,0-.08,0-.03,0-.05,0-.08,0-7.26,0-13.15,5.89-13.15,13.15,0,.48,0,1.54,0,1.54v.07c-2.09.56-4.15,1.26-6.15,2.09l-1.78.74,3.8,4.45v5.92c-.77.21-1.34.38-1.58.48l-1.75.72,3.68,4.44.27,2.02-1.36.76c-2.77,1.54-5.34,3.44-7.65,5.64-.47-.82-.94-1.65-1.4-2.48l-2.58-4.63-1.27,1.89c-4.09,6.09-6.25,13.22-6.26,20.62l-.54.78.57.4c.28,9.51,4.13,18.42,10.87,25.16.52.52,1.08,1.05,1.67,1.57l.8.71c-.65,1.75-1.42,3.38-2.31,4.84l-.73,1.19,5.21,3.18.73-1.19c.82-1.35,1.58-2.83,2.24-4.42,3.09,1.8,6.41,3.14,9.89,3.98l1.06,7.81h15.65l1.06-7.81c3.48-.84,6.8-2.18,9.89-3.98.67,1.59,1.42,3.07,2.24,4.42l.73,1.19,5.21-3.18-.73-1.19c-.89-1.45-1.66-3.08-2.31-4.84l.8-.71c.59-.52,1.15-1.05,1.67-1.57ZM44.42,48.95l1.84,3.31c1.2,2.22,2.37,4.55,3.37,7.05-1.25-.43-4.11-1.45-6.72-2.78.19-2.59.69-5.13,1.51-7.58ZM51.81,80.89c-4.84-4.58-7.75-10.51-8.68-17.66,3.57,1.39,7.1,2.32,7.46,2.4l1.04.22c.42,1.97.7,4.05.78,6.26.11,2.96-.1,5.94-.61,8.78ZM51.36,48.87c1.72-1.78,4-3.61,6.39-5.12l.39-.25,2.52,18.55c-1.35-.25-2.66-.54-3.92-.84-1.39-4.65-3.45-8.8-5.38-12.34ZM57.2,84.98c1.03-4.17,1.48-8.67,1.32-13.1-.05-1.37-.17-2.76-.36-4.14,1.11.25,2.24.48,3.36.68l2.7,19.9c-2.47-.81-4.82-1.93-7.02-3.34ZM73.92,39.26h.17l2.06,24.08c-1.01.05-1.56.07-2.15.06-.59,0-1.14-.02-2.15-.06l2.06-24.08ZM65.9,56.01l2.05-11.06.71,18.2c-.6-.05-1.2-.11-1.82-.17l-.94-6.97ZM67.43,69.08l1.67.2.11,8.6-1.79-8.8ZM76.66,96.64h-5.32l-.1-.75c.91.06,1.83.09,2.76.09.93,0,1.85-.03,2.76-.09l-.1.75ZM77.61,89.67c-1.25.14-2.44.21-3.61.21-1.17,0-2.36-.07-3.61-.21l-.42-3.93,1.49-16.34c.88.03,1.54.06,2.53.06,0,0,0,0,0,0s0,0,0,0c.99,0,1.65-.03,2.53-.06l1.49,16.34-.42,3.93ZM78.79,77.88l.11-8.6,1.67-.2-1.79,8.8ZM81.17,62.98c-.62.07-1.23.12-1.82.17l.71-18.2,2.05,11.06-.94,6.97ZM101.74,52.26l1.84-3.31c.82,2.45,1.33,4.99,1.51,7.58-2.61,1.33-5.47,2.35-6.72,2.78.99-2.5,2.16-4.83,3.37-7.05ZM83.78,88.33l2.7-19.9c1.13-.2,2.25-.42,3.36-.68-.19,1.38-.31,2.76-.36,4.14-.16,4.42.29,8.93,1.32,13.1-2.2,1.41-4.56,2.53-7.02,3.34ZM91.26,61.21c-1.26.31-2.57.59-3.92.84l2.52-18.55.39.25c2.39,1.51,4.66,3.34,6.39,5.12-1.93,3.54-3.99,7.69-5.38,12.34ZM96.19,80.89c-.5-2.84-.72-5.82-.61-8.78.08-2.21.36-4.29.78-6.26l1.04-.22c.37-.08,3.89-1.01,7.46-2.4-.93,7.15-3.84,13.08-8.68,17.66Z"/>
  <path class="st1" d="M109.8,58.78c0-7.19-2.1-14.05-6.02-19.89l-1.47,2.63c-.64,1.15-1.31,2.31-1.95,3.43-.12.22-.25.43-.37.65-.22-.23-.44-.47-.67-.69-2.4-2.4-5.08-4.41-7.96-6.01l-.43,3.66c2.57,1.63,5.33,3.82,7.35,6.09-2.36,4.25-4.57,8.69-5.97,13.71-2.08.54-4.35,1.01-6.68,1.39l4-29.44,2.72-3.29c-.69-.28-5.22-1.45-8.28-2.15l.51-7.67c.68.16,1.35.34,2.02.53v5.25c1.13.28,2.23.59,3.32.94v-5.11s2.87-3.38,2.87-3.38c-2.58-1.07-5.23-1.91-7.95-2.52v-2.86s0-.02,0-.02c-.05-5.93-4.89-10.74-10.83-10.74s-10.78,4.81-10.83,10.74v.02s0,2.87,0,2.87c-2.72.61-5.37,1.45-7.95,2.52l2.88,3.38v5.11c1.08-.34,2.18-.65,3.29-.94v-5.25c.68-.2,1.36-.37,2.04-.53l.51,7.67c-3.06.71-7.6,1.87-8.28,2.15l2.72,3.29,4,29.44c-2.33-.38-4.6-.86-6.68-1.39-1.4-5.02-3.61-9.46-5.97-13.71,2.02-2.27,4.78-4.46,7.35-6.09l-.43-3.66c-2.88,1.6-5.56,3.62-7.96,6.01-.23.23-.45.46-.67.69-.12-.22-.25-.43-.37-.65-.64-1.12-1.3-2.28-1.95-3.43l-1.47-2.63c-3.92,5.84-6.02,12.7-6.02,19.89,0,.13,0,.25,0,.38h0s0,.02,0,.02c.1,9.41,3.81,18.24,10.47,24.91.52.52,1.06,1.03,1.61,1.51l1.04-3.32c-5.99-5.47-9.16-12.66-9.75-21.25,4.13,1.88,9.09,3.17,9.37,3.23-.25-.97-.8-2.67-1.02-3.41,0,0-4.61-1.45-8.4-3.51.18-4.12,1.13-8.03,2.71-11.62.18.28.35.56.53.87.32.56.64,1.11.95,1.67,0,0,0,0,0,0l1.77,3.18s0,0,0,0c3.36,6.2,6.1,12.54,6.4,20.61.28,7.63-1.53,15.43-4.85,20.86l2.82,1.72c1.07-1.75,1.98-3.69,2.75-5.76,3.62,2.34,7.46,3.99,11.68,4.89l1.01,7.56h13.39l1.01-7.56c4.22-.9,8.06-2.55,11.68-4.89.76,2.07,1.68,4.01,2.75,5.76l2.82-1.72c-3.32-5.44-5.13-13.24-4.85-20.86.3-8.08,3.04-14.41,6.4-20.61,0,0,0,0,0,0l1.77-3.18s0,0,0,0c.32-.55.63-1.11.95-1.67.17-.3.35-.59.53-.87,1.58,3.58,2.53,7.5,2.71,11.62-3.78,2.06-8.4,3.51-8.4,3.51-.23.74-.77,2.43-1.02,3.41.28-.06,5.24-1.35,9.37-3.23-.59,8.59-3.76,15.78-9.75,21.25l1.04,3.32c.55-.49,1.09-.99,1.61-1.51,6.67-6.67,10.37-15.5,10.47-24.91,0,0,0,0,0,0h0c0-.14,0-.27,0-.39ZM82.29,28.48c-.3-.06-.56-.11-.74-.14-2.46-.49-4.8-.74-7.32-.76l.18-7.66c2.58.03,5.16.28,7.71.75l.17,7.8ZM82.03,14.13v.03s0,2.22,0,2.22c-2.45-2.28-3.2-4.91-3.37-6.83,1.01.43,1.96,1.02,2.85,1.73.34.89.53,1.84.53,2.85ZM78.66,7.59c1,.71,1.83,1.65,2.42,2.73-.78-.55-1.6-1.01-2.46-1.36-.02-.55,0-1.01.04-1.37ZM74.7,6.91c0-.26.05-.52.12-.77.99.1,1.92.39,2.77.81,0,.48.02,1.04.09,1.68-.97-.3-1.97-.47-3-.5l.03-1.22ZM77.76,9.21c.32,2.1,1.21,4.75,3.45,7.04-2.19-.32-4.43-.49-6.7-.52l.16-7.06c1.07.03,2.1.21,3.09.54ZM70.41,6.95c.85-.43,1.78-.71,2.77-.81.07.25.11.51.12.77l.03,1.27c-1.05.1-2.07.36-3.04.75.1-.75.13-1.43.13-1.97ZM69.34,7.59c.04.43.07,1.04.02,1.75-1.03.52-1.99,1.19-2.88,1.99.56-1.52,1.57-2.82,2.87-3.75ZM66.19,12.27c.95-.94,1.99-1.72,3.11-2.31-.24,1.87-1.05,4.29-3.33,6.41v-2.23s0-.02,0-.02c0-.64.08-1.25.23-1.85ZM70.19,9.53c1-.43,2.06-.7,3.15-.81l.16,7.01c-2.27.03-4.5.2-6.7.52,2.12-2.17,3.03-4.67,3.39-6.72ZM65.88,20.68c2.55-.47,5.13-.72,7.71-.75l.18,7.66c-2.52.02-4.87.27-7.32.76-.18.03-.43.08-.74.14l.17-7.8ZM61.58,33.28c.86-.25,1.74-.47,2.61-.66l1.08,16.34.36-16.63c2.72-.52,5.48-.79,8.24-.81l.13,5.73.13-5.73c2.76.02,5.52.29,8.24.81l.36,16.63,1.08-16.34c.87.2,1.75.41,2.61.66l-4.16,30.97c-2.66.32-5.89.51-8.25.51,0,0,0,0,0,0s0,0,0,0c-2.36,0-5.6-.19-8.25-.51l-4.16-30.97ZM55.67,85.6c1.16-4.27,1.7-8.95,1.52-13.66-.08-2.12-.32-4.12-.68-6.05,2.08.54,4.2.99,6.33,1.32l3.13,23.05c-3.73-.95-7.21-2.55-10.3-4.67ZM77.91,98.04h-7.82l-.42-3.71c1.39.16,2.91.25,4.32.25,0,0,0,0,0,0s0,0,0,0c1.42,0,2.94-.09,4.32-.25l-.42,3.71ZM78.84,90.94c-1.52.22-3.25.34-4.83.34,0,0,0,0,0,0s0,0,0,0c-1.58,0-3.31-.12-4.83-.34l-3.14-23.27c3.01.32,6.21.39,7.97.39,0,0,0,0,0,0s0,0,0,0c1.76,0,4.95-.06,7.97-.39l-3.14,23.27ZM82.03,90.27l3.13-23.05c2.13-.34,4.24-.78,6.33-1.32-.36,1.92-.6,3.93-.68,6.05-.17,4.71.36,9.39,1.52,13.66-3.09,2.12-6.57,3.72-10.3,4.67Z"/>
  <path class="st1" d="M84.16,116.37h-8.85v19.07h4.42v-14.05c0-.33.27-.61.61-.61h3.61c.47,0,1.18.29,1.51.63l.19.19c.33.33.63,1.04.63,1.51v12.32h4.42v-12.54c0-3.6-2.93-6.53-6.53-6.53Z"/>
  <path class="st0" d="M88.71,135.44h-.44v-12.41c0-2.34-1.91-4.25-4.25-4.25h-6.28v16.66h-.44v-17.1h6.72c2.58,0,4.69,2.1,4.69,4.69v12.41Z"/>
  <path class="st1" d="M51.72,120.78v1.58h4.43v-6h-13.36c-1.12,0-2.02.9-2.02,2.02v5.76h.01c0,.11,0,.17,0,.17.03,1.25.94,2.08,2.12,2.54l7.83,1.48.05.02c.51.2.95.37.95,1.29v.76c0,.33-.27.6-.6.6l-5.95-.03v-1.51h-4.41v5.95h13.36c1.12,0,2.02-.9,2.02-2.02v-5.76h-.01c0-.06,0-.09,0-.1-.13-1.24-.95-2.29-2.13-2.75l-7.84-1.36-.07-.03c-.51-.19-.91-.35-.91-1.27v-1.37h6.54Z"/>
  <path class="st0" d="M52.66,133.45h-9.85v-3.96h.44v3.52h9.41c.54,0,.97-.44.97-.97v-3.49c0-.72-.43-1.37-1.1-1.65l-8.42-1.89c-.79-.35-1.31-1.14-1.31-2.01v-3.3c0-.75.61-1.35,1.35-1.35h9.9v4.02h-.44v-3.59h-9.47c-.51,0-.92.41-.92.92v3.3c0,.69.4,1.31,1.03,1.6l8.4,1.89c.86.36,1.4,1.17,1.4,2.07v3.49c0,.78-.63,1.41-1.41,1.41Z"/>
  <path class="st1" d="M61.62,116.36c-1.94,0-3.51,1.57-3.51,3.51v15.56h11.87c1.94,0,3.51-1.57,3.51-3.51v-15.56h-11.87ZM69.08,129.77c0,.71-.58,1.29-1.29,1.29h-5.26v-9.04c0-.71.58-1.29,1.29-1.29h5.26v9.04Z"/>
  <path class="st0" d="M68.84,133.45h-8.7v-12.58c0-1.39,1.13-2.53,2.53-2.53h8.84v12.44c0,1.47-1.19,2.66-2.66,2.66ZM60.58,133.01h8.26c1.23,0,2.23-1,2.23-2.23v-12.01h-8.4c-1.15,0-2.09.94-2.09,2.09v12.14Z"/>
  <path class="st1" d="M95.93,116.36c-1.94,0-3.51,1.57-3.51,3.51v15.56h11.87c1.94,0,3.51-1.57,3.51-3.51v-15.56h-11.87ZM103.39,129.77c0,.71-.58,1.29-1.29,1.29h-5.26v-9.04c0-.71.58-1.29,1.29-1.29h5.26v9.04Z"/>
  <path class="st0" d="M103.17,133.45h-8.72v-12.51c0-1.43,1.16-2.59,2.59-2.59h8.77v12.46c0,1.46-1.18,2.64-2.64,2.64ZM94.88,133.01h8.29c1.22,0,2.2-.99,2.2-2.2v-12.03h-8.34c-1.19,0-2.16.97-2.16,2.16v12.08Z"/>
  <path class="st1" d="M43.64,141.3h-2.88l.36,1.37v1.51c0,1.08.31,1.46.96,1.69l1.67.58c.39.14.45.32.45.8v1.56c-.15.04-.31.05-.51.05-.58,0-.72-.43-.72-1.3v-.26h-1.85v.41c0,1.34.28,2.27,2.38,2.28h0s2.55,0,2.55,0v-3.09c0-1.38-.68-1.67-1.2-1.85l-1.44-.47c-.31-.11-.43-.26-.43-.62v-1.48c.15-.04.31-.05.51-.05.58,0,.72.43.72,1.3v.26h1.85v-.41c0-1.35-.3-2.28-2.42-2.28Z"/>
  <path class="st1" d="M105.46,141.3h-2.88l.36,1.37v1.51c0,1.08.31,1.46.96,1.69l1.67.58c.39.14.45.32.45.8v1.56c-.15.04-.31.05-.51.05-.58,0-.72-.43-.72-1.3v-.26h-1.85v.41c0,1.34.28,2.27,2.38,2.28h0s2.55,0,2.55,0v-3.09c0-1.38-.68-1.67-1.2-1.85l-1.44-.47c-.31-.11-.43-.26-.43-.62v-1.48c.15-.04.31-.05.51-.05.58,0,.72.43.72,1.3v.26h1.85v-.41c0-1.35-.3-2.28-2.42-2.28Z"/>
  <path class="st1" d="M58.29,146.62c-.16.04-.42.05-.51.05-.61,0-.72-.49-.72-1.4v-3.98h-1.85s-.36,0-.36,0l.36,1.35v3.04c0,1.35.55,1.88,1.54,2.05v2.26h1.85v-2.26c.15-.02.3-.04.45-.06.63-.1,1.09-.64,1.09-1.27v-5.11h-1.85v5.33Z"/>
  <path class="st1" d="M64.68,141.3h-.07s0,0,0,0h0s-2.82,0-2.82,0l.35,1.34v5.1c0,1.84.97,2.24,2.38,2.25h0s.1,0,.1,0h2.46v-3.91h-2.34v1.16h.49v.6c0,.76-.18.99-.61.99s-.62-.23-.62-.99v-4.39c0-.76.19-1,.62-1s.61.24.61,1v1.18h1.85v-1.18c0-1.54-.65-2.16-2.39-2.16Z"/>
  <path class="st1" d="M72.15,148.81c-.15.04-.31.05-.51.05-.58,0-.72-.43-.72-1.3v-6.28h-1.85s-.37,0-.37,0l.36,1.37h0v5.25c0,1.64.88,2.07,2.38,2.08h0s2.55,0,2.55,0v-8.71h-1.85v7.52Z"/>
  <path class="st1" d="M78.67,141.3s-.02,0-.03,0h0s-2.82,0-2.82,0l.35,1.34v7.36h1.85v-7.51c.15-.04.31-.05.51-.05.58,0,.72.43.72,1.3v6.27h1.85v-6.62c0-1.66-.9-2.08-2.43-2.08Z"/>
  <path class="st1" d="M85.78,141.3s-.02,0-.03,0h0s-2.82,0-2.82,0l.35,1.34v7.36h1.85v-7.51c.15-.04.31-.05.51-.05.58,0,.72.43.72,1.3v6.27h1.85v-6.62c0-1.66-.9-2.08-2.43-2.08Z"/>
  <polygon class="st1" points="90.38 141.3 90.03 141.3 90.38 142.65 90.38 149.99 94.34 149.99 94.34 148.83 92.23 148.83 92.23 145.98 94 145.98 94 144.82 92.23 144.82 92.23 142.46 94.34 142.46 94.34 141.3 90.38 141.3 90.38 141.3"/>
  <path class="st1" d="M98.69,141.3h-2.63s-.35,0-.35,0l.35,1.33v7.37h1.85v-2.38h.57c.47,0,.66.23.66.97v1.41h1.85v-1.25c0-.86-.18-1.42-.7-1.73.47-.31.7-.81.7-1.74v-1.87c0-1.51-.72-2.11-2.3-2.11ZM99.13,145.46c0,.76-.19.99-.66.99h-.57v-3.99h.55c.47,0,.68.23.68.99v2.02Z"/>
  <polygon class="st1" points="53.94 150 51.78 146.36 53.82 141.29 51.88 141.29 49.95 146 49.95 145.98 49.95 144.82 49.95 141.29 48.1 141.29 48.1 141.3 47.74 141.3 48.1 142.66 48.1 150 49.95 150 49.95 146.94 51.69 150 53.94 150"/>
</svg>