<?xml version="1.0" encoding="UTF-8"?>
<svg id="_레이어_1" xmlns="http://www.w3.org/2000/svg" version="1.1" viewBox="0 0 150 150">
  <!-- Generator: Adobe Illustrator 30.0.0, SVG Export Plug-In . SVG Version: 2.1.1 Build 123)  -->
  <defs>
    <style>
      .st0 {
        fill: #0f1f3c;
      }

      .st1 {
        fill: #7ba4dd;
      }
    </style>
  </defs>
  <path class="st0" d="M98.57,84.9c6.12-6.12,9.7-14.22,10.1-22.85l.99-.69-.95-1.36c-.08-6.76-2.09-13.27-5.83-18.85l-2.2-3.29-3.25,5.82c-.18.31-.35.63-.53.94-1.85-1.63-3.88-3.06-6.03-4.25l-.52-.29.09-.69,4.1-4.96-3.03-1.26c-.15-.06-.38-.13-.69-.23v-4.01l4.17-4.9-3.09-1.28c-1.56-.65-3.18-1.22-4.82-1.68v-.57c0-7.17-5.83-13-13.01-13h-.14c-7.17,0-13.01,5.83-13.01,13v.57c-1.65.48-3.27,1.04-4.82,1.68l-3.09,1.28,4.18,4.9v4.01c-.32.1-.55.17-.7.23l-3.03,1.26,4.1,4.96.09.69-.52.29c-2.14,1.19-4.17,2.62-6.03,4.25-.18-.31-.36-.63-.53-.94l-3.25-5.82-2.21,3.29c-3.74,5.57-5.75,12.08-5.83,18.85l-.94,1.36.99.69c.41,8.63,3.99,16.73,10.1,22.85.48.48,1.01.97,1.56,1.47l.11.1c-.5,1.24-1.07,2.39-1.69,3.41l-1.26,2.07,6.68,4.08,1.27-2.07c.56-.92,1.09-1.91,1.57-2.94,2.31,1.23,4.76,2.2,7.3,2.87l.98,7.25h16.13l.98-7.25c2.54-.67,4.99-1.64,7.3-2.87.49,1.04,1.01,2.03,1.58,2.94l1.27,2.07,6.68-4.08-1.26-2.07c-.62-1.03-1.2-2.17-1.69-3.41l.11-.1c.55-.49,1.08-.98,1.56-1.47h0ZM94.59,72.45c.05-1.57.23-3.14.53-4.69l.18-.04c.37-.07,2.52-.65,5-1.51-.88,4.47-2.74,8.36-5.53,11.56-.2-1.77-.26-3.55-.2-5.32h0ZM98.08,58.84c.53-1.14,1.15-2.36,1.9-3.74l.27-.49c.22,1.02.39,2.04.5,3.07-.8.39-1.71.77-2.66,1.15h0ZM87.79,83.43c-1.14.68-2.34,1.29-3.57,1.79l2.05-15.14c.22-.04.42-.08.64-.13-.07.74-.12,1.47-.14,2.2-.14,3.77.22,7.67,1.03,11.28ZM87.38,61.88l1.8-13.24c1.37.95,2.65,1.99,3.74,3.05-1.29,2.4-3.06,5.93-4.32,9.92-.4.09-.81.19-1.22.27ZM76.19,87.13c-1.49.12-2.9.13-4.38,0l-.26-2.47,1.23-13.49c.36,0,.76.02,1.22.02s.85,0,1.21-.02l1.23,13.49-.26,2.47ZM74,63.39h-.65l.67-7.74.67,7.74h-.68ZM58.82,48.65l1.8,13.24c-.41-.09-.82-.18-1.22-.27-1.26-3.99-3.03-7.52-4.32-9.92,1.1-1.05,2.38-2.1,3.74-3.05ZM61.23,72.16c-.03-.73-.07-1.46-.14-2.2.22.05.42.08.64.13l2.05,15.14c-1.23-.5-2.43-1.11-3.57-1.79.81-3.61,1.16-7.51,1.03-11.28ZM47.25,57.68c.11-1.04.27-2.06.49-3.07l.27.49c.76,1.39,1.37,2.6,1.9,3.74-.8-.31-1.74-.71-2.66-1.15h0ZM52.7,67.71l.18.04c.3,1.55.47,3.12.53,4.69.06,1.76,0,3.55-.2,5.32-2.79-3.21-4.64-7.09-5.53-11.56,2.48.86,4.64,1.44,5,1.51h0Z"/>
  <path class="st1" d="M97.74,84.07c6.07-6.07,9.53-14.09,9.78-22.64l.51-.36-.49-.7c0-6.66-1.95-13.08-5.63-18.56l-1.14-1.7-2.32,4.17c-.41.75-.84,1.49-1.26,2.23-2.08-1.99-4.39-3.69-6.89-5.08l-1.22-.68.24-1.82,3.31-4-1.58-.65c-.22-.09-.73-.24-1.41-.43v-5.33l3.4-4-1.6-.67c-1.8-.75-3.65-1.38-5.54-1.88v-1.45c0-6.53-5.3-11.83-11.84-11.83h-.14c-6.53,0-11.84,5.3-11.84,11.83v1.45c-1.88.5-3.74,1.13-5.54,1.88l-1.6.67,3.42,4.01v5.33c-.69.19-1.21.34-1.42.43l-1.57.65,3.31,4,.24,1.82-1.22.68c-2.49,1.39-4.81,3.1-6.89,5.08-.42-.74-.85-1.49-1.26-2.23l-2.32-4.17-1.14,1.7c-3.68,5.48-5.62,11.9-5.63,18.56l-.49.7.51.36c.25,8.56,3.72,16.58,9.78,22.64.47.47.97.95,1.5,1.41l.72.64c-.59,1.57-1.28,3.04-2.08,4.36l-.66,1.07,4.69,2.86.66-1.07c.74-1.21,1.42-2.55,2.02-3.98,2.78,1.62,5.77,2.83,8.9,3.58l.95,7.03h14.09l.95-7.03c3.13-.76,6.12-1.96,8.9-3.58.6,1.43,1.28,2.76,2.02,3.98l.66,1.07,4.69-2.86-.66-1.07c-.8-1.3-1.49-2.77-2.08-4.36l.72-.64c.53-.47,1.04-.95,1.5-1.41h-.03ZM47.38,51.56l1.66,2.98c1.08,2,2.13,4.09,3.03,6.34-1.12-.39-3.7-1.31-6.05-2.5.17-2.33.62-4.62,1.36-6.82ZM54.03,80.3c-4.36-4.12-6.98-9.46-7.81-15.89,3.21,1.25,6.39,2.09,6.71,2.16l.94.2c.38,1.77.63,3.65.7,5.63.1,2.66-.09,5.35-.55,7.9h0ZM53.62,51.48c1.55-1.6,3.6-3.25,5.75-4.61l.35-.23,2.27,16.69c-1.21-.23-2.39-.49-3.53-.76-1.25-4.19-3.11-7.92-4.84-11.11ZM58.88,83.98c.93-3.75,1.33-7.8,1.19-11.79-.04-1.23-.15-2.48-.32-3.73,1,.22,2.02.43,3.02.61l2.43,17.91c-2.22-.73-4.34-1.74-6.32-3.01ZM73.93,42.83h.15l1.85,21.67c-.91.04-1.4.06-1.94.05-.53,0-1.03-.02-1.94-.05l1.85-21.67h0ZM66.71,57.91l1.85-9.95.64,16.38c-.54-.04-1.08-.1-1.64-.15l-.85-6.27ZM68.09,69.67l1.5.18.1,7.74-1.61-7.92h0ZM76.39,94.48h-4.79l-.09-.67c.82.05,1.65.08,2.48.08s1.66-.03,2.48-.08c0,0-.09.67-.09.67ZM77.25,88.2c-1.12.13-2.2.19-3.25.19s-2.12-.06-3.25-.19l-.38-3.54,1.34-14.71c.79.03,1.39.05,2.28.05h0c.89,0,1.49-.03,2.28-.05l1.34,14.71-.38,3.54h.02ZM78.31,77.59l.1-7.74,1.5-.18-1.61,7.92h0ZM80.45,64.18c-.56.06-1.11.11-1.64.15l.64-16.38,1.85,9.95-.85,6.27ZM98.96,54.53l1.66-2.98c.74,2.21,1.2,4.49,1.36,6.82-2.35,1.2-4.92,2.11-6.05,2.5.89-2.25,1.94-4.35,3.03-6.34ZM82.8,87l2.43-17.91c1.02-.18,2.02-.38,3.02-.61-.17,1.24-.28,2.48-.32,3.73-.14,3.98.26,8.04,1.19,11.79-1.98,1.27-4.1,2.28-6.32,3.01ZM89.53,62.59c-1.13.28-2.31.53-3.53.76l2.27-16.69.35.23c2.15,1.36,4.19,3.01,5.75,4.61-1.74,3.19-3.59,6.92-4.84,11.11ZM93.97,80.3c-.45-2.56-.65-5.24-.55-7.9.07-1.99.32-3.86.7-5.63l.94-.2c.33-.07,3.5-.91,6.71-2.16-.84,6.44-3.46,11.77-7.81,15.89h0Z"/>
  <path class="st0" d="M106.22,60.4c0-6.47-1.89-12.64-5.42-17.9l-1.32,2.37c-.58,1.04-1.18,2.08-1.75,3.09-.11.2-.22.39-.33.59-.2-.21-.4-.42-.6-.62-2.16-2.16-4.57-3.97-7.16-5.41l-.39,3.29c2.31,1.47,4.8,3.44,6.61,5.48-2.12,3.82-4.11,7.82-5.37,12.34-1.87.49-3.91.91-6.01,1.25l3.6-26.5,2.45-2.96c-.62-.25-4.7-1.31-7.45-1.93l.46-6.9c.61.14,1.21.31,1.82.48v4.72c1.02.25,2.01.53,2.99.85v-4.6l2.58-3.04c-2.32-.96-4.71-1.72-7.15-2.27v-2.59c-.05-5.34-4.4-9.67-9.75-9.67s-9.7,4.33-9.75,9.67v2.6c-2.45.55-4.83,1.31-7.16,2.27l2.59,3.04v4.6c.97-.31,1.96-.58,2.96-.85v-4.73c.61-.18,1.22-.33,1.84-.48l.46,6.9c-2.75.64-6.84,1.68-7.45,1.93l2.45,2.96,3.6,26.5c-2.1-.34-4.14-.77-6.01-1.25-1.26-4.52-3.25-8.51-5.37-12.34,1.82-2.04,4.3-4.01,6.61-5.48l-.39-3.29c-2.59,1.44-5,3.26-7.16,5.41-.21.21-.41.41-.6.62-.11-.2-.22-.39-.33-.59-.58-1.01-1.17-2.05-1.76-3.09l-1.32-2.37c-3.53,5.26-5.42,11.43-5.42,17.9v.34h0v.02c.09,8.47,3.43,16.42,9.42,22.42.47.47.95.93,1.45,1.36l.94-2.99c-5.39-4.92-8.24-11.39-8.78-19.13,3.72,1.69,8.18,2.85,8.43,2.91-.23-.87-.72-2.4-.92-3.07,0,0-4.15-1.31-7.56-3.16.16-3.71,1.02-7.23,2.44-10.46.16.25.31.5.48.78.29.5.58,1,.86,1.5h0l1.59,2.86h0c3.02,5.58,5.49,11.29,5.76,18.55.25,6.87-1.38,13.89-4.36,18.77l2.54,1.55c.96-1.58,1.78-3.32,2.48-5.18,3.26,2.11,6.71,3.59,10.51,4.4l.91,6.8h12.05l.91-6.8c3.8-.81,7.25-2.3,10.51-4.4.68,1.86,1.51,3.61,2.48,5.18l2.54-1.55c-2.99-4.9-4.62-11.92-4.36-18.77.27-7.27,2.74-12.97,5.76-18.55h0l1.59-2.86h0c.29-.49.57-1,.85-1.5.15-.27.31-.53.48-.78,1.42,3.22,2.28,6.75,2.44,10.46-3.4,1.85-7.56,3.16-7.56,3.16-.21.67-.69,2.19-.92,3.07.25-.05,4.72-1.21,8.43-2.91-.53,7.73-3.38,14.2-8.78,19.12l.94,2.99c.5-.44.98-.89,1.45-1.36,6-6,9.33-13.95,9.42-22.42h0v-.37ZM81.46,33.13c-.27-.05-.5-.1-.67-.13-2.21-.44-4.32-.67-6.59-.68l.16-6.89c2.32.03,4.64.25,6.94.67l.15,7.02h0ZM81.23,20.22v2.02c-2.2-2.05-2.88-4.42-3.03-6.15.91.39,1.76.92,2.56,1.56.31.8.48,1.66.48,2.57h0ZM78.19,14.33c.9.64,1.65,1.48,2.18,2.46-.7-.5-1.44-.91-2.21-1.22-.02-.5,0-.91.04-1.23ZM74.63,13.72c0-.23.05-.47.11-.69.89.09,1.73.35,2.49.73,0,.43.02.94.08,1.51-.87-.27-1.77-.42-2.7-.45l.03-1.1h0ZM77.38,15.79c.29,1.89,1.09,4.27,3.1,6.34-1.97-.29-3.99-.44-6.03-.47l.14-6.35c.96.03,1.89.19,2.78.49ZM70.77,13.76c.76-.39,1.6-.64,2.49-.73.06.22.1.46.11.69l.03,1.14c-.95.09-1.86.32-2.74.68.09-.68.12-1.29.12-1.77h0ZM69.8,14.33c.04.39.06.94.02,1.57-.93.47-1.79,1.07-2.59,1.79.5-1.37,1.41-2.54,2.58-3.38h0ZM66.97,18.54c.85-.85,1.79-1.55,2.8-2.08-.22,1.68-.95,3.86-3,5.77v-2.02c0-.58.07-1.12.21-1.67h0ZM70.57,16.08c.9-.39,1.85-.63,2.84-.73l.14,6.31c-2.04.03-4.05.18-6.03.47,1.91-1.95,2.73-4.2,3.05-6.05ZM66.69,26.11c2.3-.42,4.62-.65,6.94-.68l.16,6.89c-2.27.02-4.38.24-6.59.68-.16.03-.39.07-.67.13l.15-7.02h0ZM62.82,37.45c.77-.22,1.57-.42,2.35-.59l.97,14.71.32-14.97c2.45-.47,4.93-.71,7.42-.73l.12,5.16.12-5.16c2.48.02,4.97.26,7.42.73l.32,14.97.97-14.71c.78.18,1.58.37,2.35.59l-3.74,27.87c-2.39.29-5.3.46-7.42.46h0c-2.12,0-5.04-.17-7.43-.46l-3.74-27.87h-.02ZM57.5,84.54c1.04-3.84,1.53-8.05,1.37-12.29-.07-1.91-.29-3.71-.61-5.45,1.87.49,3.78.89,5.7,1.19l2.82,20.74c-3.36-.85-6.49-2.3-9.27-4.2h0ZM77.52,95.74h-7.04l-.38-3.34c1.25.14,2.62.23,3.89.23h0c1.28,0,2.65-.08,3.89-.23l-.38,3.34h.02ZM78.35,89.35c-1.37.2-2.93.31-4.35.31h0c-1.42,0-2.98-.11-4.35-.31l-2.83-20.94c2.71.29,5.59.35,7.17.35h0c1.58,0,4.45-.05,7.17-.35l-2.83,20.94ZM81.23,88.74l2.82-20.74c1.92-.31,3.82-.7,5.7-1.19-.32,1.73-.54,3.54-.61,5.45-.15,4.24.32,8.45,1.37,12.29-2.78,1.91-5.91,3.35-9.27,4.2h0Z"/>
  <path class="st0" d="M83.14,112.23h-7.96v17.16h3.98v-12.65c0-.3.24-.55.55-.55h3.25c.42,0,1.06.26,1.36.57l.17.17c.3.3.57.94.57,1.36v11.09h3.98v-11.29c0-3.24-2.64-5.88-5.88-5.88h0Z"/>
  <path class="st1" d="M87.24,129.4h-.4v-11.17c0-2.11-1.72-3.83-3.83-3.83h-5.65v14.99h-.4v-15.39h6.05c2.32,0,4.22,1.89,4.22,4.22v11.17Z"/>
  <path class="st0" d="M53.95,116.2v1.42h3.99v-5.4h-12.02c-1.01,0-1.82.81-1.82,1.82v5.18h0v.15c.03,1.12.85,1.87,1.91,2.29l7.05,1.33.04.02c.46.18.86.33.86,1.16v.68c0,.3-.24.54-.54.54l-5.36-.03v-1.36h-3.97v5.35h12.02c1.01,0,1.82-.81,1.82-1.82v-5.18h0v-.09c-.12-1.12-.86-2.06-1.92-2.47l-7.06-1.22-.06-.03c-.46-.17-.82-.31-.82-1.14v-1.23h5.89v.03Z"/>
  <path class="st1" d="M54.79,127.61h-8.87v-3.56h.4v3.17h8.47c.49,0,.87-.4.87-.87v-3.14c0-.65-.39-1.23-.99-1.49l-7.58-1.7c-.71-.31-1.18-1.03-1.18-1.81v-2.97c0-.67.55-1.21,1.21-1.21h8.91v3.62h-.4v-3.23h-8.52c-.46,0-.83.37-.83.83v2.97c0,.62.36,1.18.93,1.44l7.56,1.7c.77.32,1.26,1.05,1.26,1.86v3.14c0,.7-.57,1.27-1.27,1.27h.02Z"/>
  <path class="st0" d="M62.86,112.23c-1.75,0-3.16,1.41-3.16,3.16v14h10.68c1.75,0,3.16-1.41,3.16-3.16v-14h-10.68ZM69.57,124.29c0,.64-.52,1.16-1.16,1.16h-4.73v-8.14c0-.64.52-1.16,1.16-1.16h4.73v8.14h0Z"/>
  <path class="st1" d="M69.35,127.61h-7.83v-11.32c0-1.25,1.02-2.28,2.28-2.28h7.96v11.2c0,1.32-1.07,2.39-2.39,2.39h0ZM61.92,127.21h7.43c1.11,0,2.01-.9,2.01-2.01v-10.81h-7.56c-1.04,0-1.88.85-1.88,1.88v10.93h0Z"/>
  <path class="st0" d="M93.74,112.23c-1.75,0-3.16,1.41-3.16,3.16v14h10.68c1.75,0,3.16-1.41,3.16-3.16v-14h-10.68ZM100.45,124.29c0,.64-.52,1.16-1.16,1.16h-4.73v-8.14c0-.64.52-1.16,1.16-1.16h4.73v8.14h0Z"/>
  <path class="st1" d="M100.25,127.61h-7.85v-11.26c0-1.29,1.04-2.33,2.33-2.33h7.89v11.21c0,1.31-1.06,2.38-2.38,2.38ZM92.79,127.21h7.46c1.1,0,1.98-.89,1.98-1.98v-10.83h-7.51c-1.07,0-1.94.87-1.94,1.94v10.87h0Z"/>
  <path class="st0" d="M46.67,134.67h-2.59l.32,1.23v1.36c0,.97.28,1.31.86,1.52l1.5.52c.35.13.41.29.41.72v1.4c-.14.04-.28.05-.46.05-.52,0-.65-.39-.65-1.17v-.23h-1.66v.37c0,1.21.25,2.04,2.14,2.05h2.29v-2.78c0-1.24-.61-1.5-1.08-1.67l-1.3-.42c-.28-.1-.39-.23-.39-.56v-1.33c.14-.04.28-.05.46-.05.52,0,.65.39.65,1.17v.23h1.66v-.37c0-1.22-.27-2.05-2.18-2.05Z"/>
  <path class="st0" d="M102.31,134.67h-2.59l.32,1.23v1.36c0,.97.28,1.31.86,1.52l1.5.52c.35.13.4.29.4.72v1.4c-.14.04-.28.05-.46.05-.52,0-.65-.39-.65-1.17v-.23h-1.66v.37c0,1.21.25,2.04,2.14,2.05h2.3v-2.78c0-1.24-.61-1.5-1.08-1.67l-1.3-.42c-.28-.1-.39-.23-.39-.56v-1.33c.14-.04.28-.05.46-.05.52,0,.65.39.65,1.17v.23h1.66v-.37c0-1.22-.27-2.05-2.18-2.05Z"/>
  <path class="st0" d="M59.86,139.46c-.14.04-.38.05-.46.05-.55,0-.65-.44-.65-1.26v-3.58h-1.99l.32,1.22v2.74c0,1.22.49,1.69,1.39,1.85v2.03h1.66v-2.03c.14-.02.27-.04.41-.05.57-.09.98-.58.98-1.14v-4.6h-1.66v4.8h0Z"/>
  <path class="st0" d="M65.61,134.67h-2.6l.31,1.21v4.59c0,1.66.87,2.02,2.14,2.02h2.3v-3.52h-2.11v1.04h.44v.54c0,.68-.16.89-.55.89s-.56-.21-.56-.89v-3.95c0-.68.17-.9.56-.9s.55.22.55.9v1.06h1.66v-1.06c0-1.39-.59-1.94-2.15-1.94h0Z"/>
  <path class="st0" d="M72.33,141.43c-.14.04-.28.05-.46.05-.52,0-.65-.39-.65-1.17v-5.65h-2l.32,1.23h0v4.73c0,1.48.79,1.86,2.14,1.87h2.3v-7.84h-1.66v6.79Z"/>
  <path class="st0" d="M78.2,134.67h-2.56l.31,1.21v6.62h1.66v-6.76c.14-.04.28-.05.46-.05.52,0,.65.39.65,1.17v5.64h1.66v-5.96c0-1.49-.81-1.87-2.19-1.87h0Z"/>
  <path class="st0" d="M84.6,134.67h-2.56l.31,1.21v6.62h1.66v-6.76c.14-.04.28-.05.46-.05.52,0,.65.39.65,1.17v5.64h1.66v-5.96c0-1.49-.81-1.87-2.19-1.87h0Z"/>
  <polygon class="st0" points="88.74 134.67 88.43 134.67 88.74 135.89 88.74 142.49 92.3 142.49 92.3 141.45 90.41 141.45 90.41 138.88 92 138.88 92 137.84 90.41 137.84 90.41 135.72 92.3 135.72 92.3 134.67 88.74 134.67 88.74 134.67"/>
  <path class="st0" d="M96.22,134.67h-2.68l.31,1.2v6.63h1.66v-2.14h.51c.42,0,.59.21.59.87v1.27h1.66v-1.12c0-.77-.16-1.28-.63-1.56.42-.28.63-.73.63-1.57v-1.68c0-1.36-.65-1.9-2.07-1.9ZM96.62,138.42c0,.68-.17.89-.59.89h-.51v-3.59h.5c.42,0,.61.21.61.89v1.82h0Z"/>
  <polygon class="st0" points="55.94 142.5 54 139.23 55.84 134.66 54.09 134.66 52.35 138.9 52.35 138.88 52.35 137.84 52.35 134.66 50.69 134.66 50.69 134.67 50.36 134.67 50.69 135.9 50.69 142.5 52.35 142.5 52.35 139.75 53.92 142.5 55.94 142.5"/>
</svg>